<?xml version="1.0" encoding="UTF-8"?>
<svg width="98px" height="138px" viewBox="0 0 98 138" version="1.1" xmlns="http://www.w3.org/2000/svg" xmlns:xlink="http://www.w3.org/1999/xlink">
    <!-- Generator: Sketch 56.3 (81716) - https://sketch.com -->
    <title>Atomes / illustration / Compteur / Linky</title>
    <desc>Created with Sketch.</desc>
    <defs>
        <polygon id="path-1" points="0.117952239 0.180560748 91.8639224 0.180560748 91.8639224 137.781046 0.117952239 137.781046"></polygon>
        <polygon id="path-3" points="0.346650718 0.137710293 51.8865281 0.137710293 51.8865281 59.7181334 0.346650718 59.7181334"></polygon>
        <path d="M0.209688312,0.603290698 L0.209688312,5.29860853 C0.209688312,5.47153876 0.358217532,5.60844186 0.539678571,5.61106202 L0.539678571,5.61106202 L8.8552987,5.6818062 C9.03608766,5.6818062 9.18461688,5.54228295 9.18461688,5.37197287 L9.18461688,5.37197287 L9.18461688,0.685170543 C9.18461688,0.518135659 9.03608766,0.385162791 8.8552987,0.381232558 L8.8552987,0.381232558 L0.539678571,0.298042636 C0.358217532,0.302627907 0.209688312,0.437565891 0.209688312,0.603290698 L0.209688312,0.603290698 Z" id="path-5"></path>
        <path d="M0.209688312,0.603290698 L0.209688312,5.29860853 C0.209688312,5.47153876 0.358217532,5.60844186 0.539678571,5.61106202 L0.539678571,5.61106202 L8.8552987,5.6818062 C9.03608766,5.6818062 9.18461688,5.54228295 9.18461688,5.37197287 L9.18461688,5.37197287 L9.18461688,0.685170543 C9.18461688,0.518135659 9.03608766,0.385162791 8.8552987,0.381232558 L8.8552987,0.381232558 L0.539678571,0.298042636 C0.358217532,0.302627907 0.209688312,0.437565891 0.209688312,0.603290698" id="path-7"></path>
        <polygon id="path-9" points="0.386818182 5.29795349 1.68945455 5.29533333 1.68945455 0.301972868 0.386818182 0.288217054"></polygon>
    </defs>
    <g id="Atomes-/-illustration-/-Compteur-/-Linky" stroke="none" stroke-width="1" fill="none" fill-rule="evenodd">
        <g id="Group-61" transform="translate(3.000000, 0.000000)">
            <g id="Group-10">
                <g id="Group-3">
                    <mask id="mask-2" fill="white">
                        <use xlink:href="#path-1"></use>
                    </mask>
                    <g id="Clip-2"></g>
                    <path d="M91.8639224,132.855566 C91.8639224,135.584613 89.2597731,137.791968 86.022609,137.781046 L5.94278806,137.664286 C2.7282806,137.661707 0.117952239,135.447903 0.117952239,132.730464 L0.117952239,5.09594019 C0.117952239,2.37914579 2.7282806,0.165986916 5.94278806,0.180106004 L86.022609,0.294958879 C89.2597731,0.310435514 91.8639224,2.51327664 91.8639224,5.23071589 L91.8639224,132.855566 Z" id="Fill-1" fill="#CCD41F" mask="url(#mask-2)"></path>
                </g>
                <path d="M73.1455612,91.9586215 C73.1455612,94.8366308 70.3821284,97.1703785 66.9767552,97.1748925 L19.6564866,97.0981542 C16.2497403,97.0981542 13.4766955,94.7476402 13.4766955,91.8606028 L13.4766955,33.8683598 C13.4766955,30.983257 16.2497403,28.6430607 19.6564866,28.6527038 L66.9767552,28.7223785 C70.3821284,28.7275374 73.1455612,31.0696682 73.1455612,33.9637991 L73.1455612,91.9586215 Z" id="Fill-4" fill="#B7C243"></path>
                <path d="M73.1455612,91.9586215 C73.1455612,94.8366308 70.3821284,97.1703785 66.9767552,97.1748925 L19.6564866,97.0981542 C16.2497403,97.0981542 13.4766955,94.7476402 13.4766955,91.8606028 L13.4766955,33.8683598 C13.4766955,30.983257 16.2497403,28.6430607 19.6564866,28.6527038 L66.9767552,28.7223785 C70.3821284,28.7275374 73.1455612,31.0696682 73.1455612,33.9637991 L73.1455612,91.9586215 Z" id="Stroke-6" stroke="#B7C243" stroke-width="0.365"></path>
                <path d="M74.1707433,87.4596925 C74.1707433,90.1816458 71.5576687,92.3780383 68.3369821,92.3870664 L23.644206,92.3167766 C20.4235194,92.3116178 17.8028925,90.0958794 17.8028925,87.365543 L17.8028925,32.5905056 C17.8028925,29.8659729 20.4235194,27.6560383 23.644206,27.6624728 L68.3369821,27.7282626 C71.5576687,27.7301972 74.1707433,29.9427112 74.1707433,32.6788514 L74.1707433,87.4596925 Z" id="Fill-8" fill="#CFCEC4"></path>
            </g>
            <g id="Group-13" transform="translate(19.863636, 29.000000)">
                <mask id="mask-4" fill="white">
                    <use xlink:href="#path-3"></use>
                </mask>
                <g id="Clip-12"></g>
                <path d="M51.8865281,55.1879844 C51.8865281,57.6914536 49.5019288,59.7135863 46.5588367,59.7181334 L5.68775419,59.6616202 C2.74672548,59.6518765 0.346306818,57.6109061 0.346306818,55.1009411 L0.346306818,4.67688838 C0.346306818,2.16497469 2.74672548,0.137645335 5.68775419,0.137645335 L46.5588367,0.201953443 C49.5019288,0.210397942 51.8865281,2.24227434 51.8865281,4.75678633 L51.8865281,55.1879844 Z" id="Fill-11" fill="#F9F9F7" mask="url(#mask-4)"></path>
            </g>
            <g id="Group-26" transform="translate(17.772727, 27.000000)">
                <polygon id="Stroke-14" stroke="#7F8074" stroke-width="0.219" points="27.3528869 64.8436695 13.815744 64.8712666 13.815744 56.5561902 27.3528869 56.5215333"></polygon>
                <polygon id="Stroke-16" stroke="#7F8074" stroke-width="0.219" points="44.9559643 64.9364087 31.4311429 64.9691401 31.4311429 56.637377 44.9559643 56.618765"></polygon>
                <polygon id="Fill-18" fill="#9AA3AB" points="10.1020655 30.3958532 10.1020655 42.7041687 48.0616488 42.7600047 48.0616488 30.4446295"></polygon>
                <path d="M10.1020655,55.204894 C10.1020655,55.9378221 10.8173929,56.5353319 11.682631,56.5423916 L46.4756071,56.5905583 C47.349744,56.5956605 48.0616488,55.9865984 48.0616488,55.2466105 L48.0616488,42.7598764 L10.1020655,42.7040404 L10.1020655,55.204894 Z" id="Fill-20" fill="#4F4F4F"></path>
                <path d="M48.0617173,18.5555976 C48.0617173,17.8091918 47.3498125,17.2136074 46.4756756,17.2232343 L11.6820149,17.1699654 C10.8174613,17.155846 10.1014494,17.7700423 10.1014494,18.5093884 L10.1014494,30.3960457 L48.0617173,30.444822 L48.0617173,18.5555976 Z" id="Fill-22" fill="#4F4F4F"></path>
                <path d="M56.8369018,60.0884932 C56.8369018,62.7975035 54.2316042,64.9834521 51.020503,64.9924372 L6.46074107,64.9224817 C3.24963988,64.9173474 0.6368125,62.712145 0.6368125,59.9947913 L0.6368125,5.48021044 C0.6368125,2.76863294 3.24963988,0.569206647 6.46074107,0.575610572 L51.020503,0.641087518 C54.2316042,0.643012898 56.8369018,2.84500636 56.8369018,5.56813615 L56.8369018,60.0884932 Z" id="Stroke-24" stroke="#B7C243" stroke-width="0.365"></path>
            </g>
            <g id="Group-33" transform="translate(40.772727, 122.000000)">
                <g id="Group-29">
                    <mask id="mask-6" fill="white">
                        <use xlink:href="#path-5"></use>
                    </mask>
                    <g id="Clip-28"></g>
                    <path d="M9.18401201,5.37203837 C9.18401201,5.54234845 9.03615487,5.68187171 8.85536591,5.68187171 L0.539073701,5.61112752 C0.35828474,5.60850736 0.209083442,5.47160426 0.209083442,5.29867403 L0.209083442,0.603356202 C0.209083442,0.437631395 0.35828474,0.30334845 0.539073701,0.29810814 L8.85536591,0.381298062 C9.03615487,0.385883333 9.18401201,0.518201163 9.18401201,0.686546124 L9.18401201,5.37203837 Z" id="Fill-27" fill="#4F4F4F" mask="url(#mask-6)"></path>
                </g>
                <g id="Group-32">
                    <mask id="mask-8" fill="white">
                        <use xlink:href="#path-7"></use>
                    </mask>
                    <g id="Clip-31"></g>
                    <path d="M7.03517727,-0.219437984 L5.53308312,-0.233848837 L5.53308312,0.608531008 C5.53308312,1.17382946 5.15671948,1.63170155 4.68962532,1.62318605 C4.23328442,1.62318605 3.85759286,1.15876357 3.85759286,0.598705426 L3.85759286,-0.255465116 L2.35348247,-0.271186047 C2.25871948,-0.264635659 2.16798896,-0.199131783 2.16798896,-0.0989108527 L2.16798896,2.5435155 C2.16798896,2.63063566 2.25871948,2.71382558 2.35348247,2.71382558 L7.03517727,2.75378295 C7.13733312,2.75378295 7.21798247,2.67779845 7.21798247,2.57823256 L7.21798247,-0.0537131783 C7.21798247,-0.146728682 7.13733312,-0.219437984 7.03517727,-0.219437984" id="Fill-30" fill="#FEFEFE" mask="url(#mask-8)"></path>
                </g>
            </g>
            <polygon id="Fill-34" fill="#4F4F4F" points="44.9545455 120.981023 44.9545455 116 47.0454545 116 47.0454545 121"></polygon>
            <g id="Group-38" transform="translate(44.954545, 127.000000)">
                <mask id="mask-10" fill="white">
                    <use xlink:href="#path-9"></use>
                </mask>
                <g id="Clip-37"></g>
                <polygon id="Fill-36" mask="url(#mask-10)" points="0.386818182 5.29795349 1.68945455 5.29533333 1.68945455 0.301972868 0.386818182 0.288217054"></polygon>
            </g>
        </g>
    </g>
</svg>